<?xml version="1.0" encoding="UTF-8"?>
<!DOCTYPE svg PUBLIC "-//W3C//DTD SVG 1.1//EN" "http://www.w3.org/Graphics/SVG/1.1/DTD/svg11.dtd">
<svg xmlns="http://www.w3.org/2000/svg" version="1.1" width="512px" height="512px" style="shape-rendering:geometricPrecision; text-rendering:geometricPrecision; image-rendering:optimizeQuality; fill-rule:evenodd; clip-rule:evenodd" xmlns:xlink="http://www.w3.org/1999/xlink">
<g><path style="opacity:0.976" fill="#fe4080" d="M 237.5,-0.5 C 249.5,-0.5 261.5,-0.5 273.5,-0.5C 338.665,9.16963 385.165,43.8363 413,103.5C 436.503,167.323 427.503,225.989 386,279.5C 358.07,311.724 322.904,331.391 280.5,338.5C 279.5,359.489 279.167,380.489 279.5,401.5C 282.167,401.5 284.833,401.5 287.5,401.5C 304.272,404.45 311.772,414.45 310,431.5C 306.106,442.176 298.606,448.176 287.5,449.5C 284.833,449.5 282.167,449.5 279.5,449.5C 279.918,464.883 279.418,480.216 278,495.5C 275.315,503.35 270.148,508.684 262.5,511.5C 257.833,511.5 253.167,511.5 248.5,511.5C 240.852,508.684 235.685,503.35 233,495.5C 231.582,480.216 231.082,464.883 231.5,449.5C 217.829,449.667 204.163,449.5 190.5,449C 177.161,446.827 169.828,438.994 168.5,425.5C 169.828,412.006 177.161,404.173 190.5,402C 204.163,401.5 217.829,401.333 231.5,401.5C 231.833,380.489 231.5,359.489 230.5,338.5C 153.747,323.246 106.247,277.58 88,201.5C 77.3526,129.722 100.853,72.2221 158.5,29C 182.662,13.1157 208.995,3.28234 237.5,-0.5 Z M 243.5,46.5 C 306.854,45.0749 350.021,73.7416 373,132.5C 386.62,184.202 373.787,228.036 334.5,264C 290.949,297.027 244.615,301.361 195.5,277C 151.098,249.704 130.265,209.87 133,157.5C 140.75,105.494 169.25,70.3269 218.5,52C 226.877,49.7221 235.21,47.8888 243.5,46.5 Z"/></g>
<g><path style="opacity:0.937" fill="#d63d76" d="M 287.5,401.5 C 298.505,401.333 309.505,401.5 320.5,402C 333.839,404.173 341.172,412.006 342.5,425.5C 341.172,438.994 333.839,446.827 320.5,449C 309.505,449.5 298.505,449.667 287.5,449.5C 298.606,448.176 306.106,442.176 310,431.5C 311.772,414.45 304.272,404.45 287.5,401.5 Z"/></g>
</svg>
