<?xml version="1.0" encoding="UTF-8"?>
<!DOCTYPE svg PUBLIC "-//W3C//DTD SVG 1.1//EN" "http://www.w3.org/Graphics/SVG/1.1/DTD/svg11.dtd">
<svg xmlns="http://www.w3.org/2000/svg" version="1.1" width="512px" height="512px" style="shape-rendering:geometricPrecision; text-rendering:geometricPrecision; image-rendering:optimizeQuality; fill-rule:evenodd; clip-rule:evenodd" xmlns:xlink="http://www.w3.org/1999/xlink">
<g><path style="opacity:0.991" fill="#56bede" d="M 193.5,53.5 C 193.829,68.676 193.496,83.676 192.5,98.5C 186.202,92.7028 180.035,86.7028 174,80.5C 173.167,110.506 173.333,140.506 174.5,170.5C 180.927,171.515 187.261,172.848 193.5,174.5C 193.828,185.679 193.495,196.679 192.5,207.5C 160.714,199.689 130.048,202.689 100.5,216.5C 100.188,204.42 100.521,192.42 101.5,180.5C 113.875,175.72 126.709,172.387 140,170.5C 140.667,140.833 140.667,111.167 140,81.5C 126.5,95 113,108.5 99.5,122C 91.3882,125.94 83.8882,125.106 77,119.5C 72.7586,112.732 72.4252,105.732 76,98.5C 99.8333,74.6667 123.667,50.8333 147.5,27C 154.167,23.6667 160.833,23.6667 167.5,27C 176.369,35.7017 185.036,44.535 193.5,53.5 Z"/></g>
<g><path style="opacity:0.982" fill="#54b2dd" d="M 395.5,59.5 C 395.5,74.8333 395.5,90.1667 395.5,105.5C 387.202,97.7024 379.035,89.7024 371,81.5C 370.333,111.167 370.333,140.833 371,170.5C 379.775,171.707 388.275,173.707 396.5,176.5C 395.505,187.654 395.172,198.988 395.5,210.5C 357.297,197.783 320.964,201.783 286.5,222.5C 286.464,210.473 286.464,198.14 286.5,185.5C 292.73,181.892 299.397,179.058 306.5,177C 316.375,174.197 326.375,172.031 336.5,170.5C 337.667,140.506 337.833,110.506 337,80.5C 323.167,94.3333 309.333,108.167 295.5,122C 287.417,125.903 279.917,125.069 273,119.5C 268.759,112.732 268.425,105.732 272,98.5C 295.833,74.6667 319.667,50.8333 343.5,27C 350.167,23.6667 356.833,23.6667 363.5,27C 374.369,37.7016 385.035,48.5349 395.5,59.5 Z"/></g>
<g><path style="opacity:0.965" fill="#55badd" d="M 193.5,53.5 C 208.799,68.2982 223.965,83.2982 239,98.5C 245.294,116.867 238.794,125.367 219.5,124C 209.698,116.365 200.698,107.865 192.5,98.5C 193.496,83.676 193.829,68.676 193.5,53.5 Z"/></g>
<g><path style="opacity:0.967" fill="#53addc" d="M 395.5,59.5 C 408.798,72.2981 421.965,85.2981 435,98.5C 438.333,105.167 438.333,111.833 435,118.5C 428.055,125.069 420.222,126.236 411.5,122C 405.964,116.631 400.63,111.131 395.5,105.5C 395.5,90.1667 395.5,74.8333 395.5,59.5 Z"/></g>
<g><path style="opacity:0.983" fill="#55b8de" d="M 193.5,174.5 C 216.388,179.566 237.055,189.233 255.5,203.5C 265.102,196.201 275.435,190.201 286.5,185.5C 286.464,198.14 286.464,210.473 286.5,222.5C 284.282,224.107 282.282,225.94 280.5,228C 283.13,230.791 285.13,233.958 286.5,237.5C 286.171,297.905 286.504,358.238 287.5,418.5C 285.047,421.902 282.714,425.402 280.5,429C 282.665,431.331 284.999,433.498 287.5,435.5C 286.814,447.402 286.148,459.402 285.5,471.5C 274.865,466.518 264.865,460.518 255.5,453.5C 237.128,467.185 216.795,476.852 194.5,482.5C 193.833,471.167 193.167,459.833 192.5,448.5C 206.784,444.859 219.451,438.359 230.5,429C 195.279,382.543 186.446,331.376 204,275.5C 210.404,258.181 219.237,242.347 230.5,228C 230.241,226.739 229.574,225.739 228.5,225C 217.082,217.79 205.082,211.957 192.5,207.5C 193.495,196.679 193.828,185.679 193.5,174.5 Z M 254.5,251.5 C 256.017,251.511 257.184,252.177 258,253.5C 283.048,289.124 289.048,327.791 276,369.5C 271.456,382.936 264.622,394.936 255.5,405.5C 234.26,378.593 225.427,347.926 229,313.5C 232.295,290.591 240.795,269.924 254.5,251.5 Z"/></g>
<g><path style="opacity:0.98" fill="#53abdd" d="M 396.5,176.5 C 437.058,187.734 468.058,211.401 489.5,247.5C 488.501,301.664 488.168,355.997 488.5,410.5C 466.815,446.703 435.481,470.37 394.5,481.5C 395.167,469.833 395.833,458.167 396.5,446.5C 448.526,424.482 475.859,385.149 478.5,328.5C 477.325,280.962 456.659,244.795 416.5,220C 409.716,216.273 402.716,213.106 395.5,210.5C 395.172,198.988 395.505,187.654 396.5,176.5 Z"/></g>
<g><path style="opacity:0.987" fill="#57c3df" d="M 101.5,180.5 C 100.521,192.42 100.188,204.42 100.5,216.5C 80.6733,227.251 64.34,241.918 51.5,260.5C 50.8333,244.5 50.1667,228.5 49.5,212.5C 64.5485,198.3 81.8818,187.633 101.5,180.5 Z"/></g>
<g><path style="opacity:0.988" fill="#57c6df" d="M 49.5,212.5 C 50.1667,228.5 50.8333,244.5 51.5,260.5C 29.7684,297.936 26.6017,336.936 42,377.5C 44.9246,383.685 48.0913,389.685 51.5,395.5C 50.5035,411.992 50.1702,428.658 50.5,445.5C 21.6066,418.715 4.60657,385.715 -0.5,346.5C -0.5,334.5 -0.5,322.5 -0.5,310.5C 4.51705,271.798 21.1837,239.131 49.5,212.5 Z"/></g>
<g><path style="opacity:0.983" fill="#54b4de" d="M 286.5,237.5 C 306.358,264.415 316.025,294.748 315.5,328.5C 315.984,361.706 306.651,391.706 287.5,418.5C 286.504,358.238 286.171,297.905 286.5,237.5 Z"/></g>
<g><path style="opacity:0.981" fill="#53a7dd" d="M 489.5,247.5 C 501.212,266.971 508.546,287.971 511.5,310.5C 511.5,322.5 511.5,334.5 511.5,346.5C 508.589,369.568 500.922,390.902 488.5,410.5C 488.168,355.997 488.501,301.664 489.5,247.5 Z"/></g>
<g><path style="opacity:0.985" fill="#57c3df" d="M 51.5,395.5 C 63.8981,414.852 80.2314,429.852 100.5,440.5C 100.828,452.345 100.495,464.012 99.5,475.5C 81.12,468.775 64.7867,458.775 50.5,445.5C 50.1702,428.658 50.5035,411.992 51.5,395.5 Z"/></g>
<g><path style="opacity:0.98" fill="#54b2dd" d="M 287.5,435.5 C 322.147,455.27 358.48,458.936 396.5,446.5C 395.833,458.167 395.167,469.833 394.5,481.5C 356.963,490.937 320.629,487.604 285.5,471.5C 286.148,459.402 286.814,447.402 287.5,435.5 Z"/></g>
<g><path style="opacity:0.983" fill="#56bede" d="M 100.5,440.5 C 130.178,454.649 160.845,457.316 192.5,448.5C 193.167,459.833 193.833,471.167 194.5,482.5C 168.82,487.941 143.153,487.775 117.5,482C 111.145,480.496 105.145,478.329 99.5,475.5C 100.495,464.012 100.828,452.345 100.5,440.5 Z"/></g>
</svg>
